<?xml version="1.0" encoding="utf-8"?>
<!-- Generator: Adobe Illustrator 18.0.0, SVG Export Plug-In . SVG Version: 6.00 Build 0)  -->
<!DOCTYPE svg PUBLIC "-//W3C//DTD SVG 1.1//EN" "http://www.w3.org/Graphics/SVG/1.1/DTD/svg11.dtd">
<svg version="1.1" id="Слой_1" xmlns="http://www.w3.org/2000/svg" xmlns:xlink="http://www.w3.org/1999/xlink" x="0px" y="0px"
	 width="960px" height="365px" viewBox="0 194 960 365" enable-background="new 0 194 960 365" xml:space="preserve">
<polygon fill="#E83B3B" points="234.4,555.8 379,194.9 0,555.8 "/>
<rect x="379" y="321.2" fill="#424242" width="53.4" height="234.4"/>
<polygon fill="#424242" points="598.5,367.6 616.9,321.2 449.2,321.2 449.2,367.6 505.3,367.6 505.3,555.8 559.9,555.8 559.9,376.9 
	559,367.6 "/>
<path fill="#424242" d="M943.6,438c-4.7-5-10.9-9.6-17.8-13.1c-6.9-3.5-14.6-6.9-22.8-10.2l-19.4-7.6c-2.8-0.9-5.7-2.2-8.7-3.5
	c-2.8-1.3-5.4-2.5-7.6-4.4c-2.2-1.6-4.1-3.8-5.4-6.3c-1.6-2.5-2.2-5.4-2.2-9.3c0-4.4,0.6-8.3,2.5-11.2c1.6-2.8,3.8-5,6.3-6.6
	s5.4-2.8,9-3.5c3.1-0.6,6.3-0.9,9.6-0.9c14.3,0,28.3,2.8,41.7,8.7l16.2-41.1v-0.3c-11.2-3.5-20.9-6-29.3-8
	c-10.5-2.2-20.6-3.1-30.9-3.1c-12.1,0-23.3,1.6-33.4,4.4c-9.9,3.1-18.4,7.6-25.5,13.4c-6.9,6-12.4,13.1-16.2,21.9
	c-3.8,8.7-5.7,18.7-5.4,29.9c0,9.3,1.6,17.2,4.1,23.9c2.5,6.8,6,12.4,10.5,17.5c4.4,4.7,9.9,9.3,15.9,12.8c6,3.5,12.8,6.6,19.7,9.6
	l19.4,7.6c3.5,1.3,6.9,2.5,10.5,3.8c3.5,1.3,6.6,2.8,9.6,5s5,4.7,6.6,7.6c1.6,3.1,2.2,6.9,1.9,11.5c-0.9,9-4.4,15-10.9,18.1
	c-6.5,3.1-15.6,4.7-27.4,4.7c-9,0-17.8-0.9-26.5-2.8c-6.3-1.3-12.8-2.8-19.1-4.4l-17.6,43.9v0.3c6,2.5,11.8,4.4,17.2,6
	c5.4,1.6,10.9,2.8,16.2,3.8c5.4,0.9,10.9,1.9,16.5,2.2c5.7,0.3,11.8,0.6,18.4,0.6h0.3c14.6,0,27.7-1.9,38.9-5.4
	c11.5-3.5,20.6-8.7,28.3-15c7.6-6.3,13.4-14.3,17.2-23.6c3.5-8.7,5.4-18.1,5.4-28.3v-0.9v-0.8c-0.3-11.2-1.6-20.3-4.4-28
	C952.6,449.5,948.8,443,943.6,438"/>
<path fill="#424242" d="M730.6,421.5c-2.8,5-6.6,9-11.5,12.1c-4.7,2.8-10.2,4.7-16.5,6c-6.3,0.9-12.8,0.9-19.4,0l1.3-4.4v-69.8
	c3.1-0.3,5.4-0.6,6.9-0.6h4.4c5,0,9.9,0.6,14.3,1.9c4.4,1.3,8.7,3.5,12.4,6.3c3.5,2.8,6.3,6.9,8.7,11.8s3.1,11.2,3.1,18.1
	C734.7,410.3,733.4,416.4,730.6,421.5 M781.1,444.6c5.7-10.9,8.7-24.9,8.7-42c0-17.2-2.8-31.5-8.7-42.4
	c-5.8-10.9-13.4-19.4-22.2-25.5c-9.3-6-19.1-10.2-30.5-12.4c-11.2-2.2-22.5-3.1-33.7-3.1c-21.3,0-42.7,0.9-63.6,2.8v233.8h53.4v-71
	c1.9,0.3,3.5,0.3,5.7,0.6c1.9,0,3.8,0.3,5,0.3c10.9,0,21.9-0.9,33.1-3.1c11.2-2.2,21.3-6.3,30.2-12.4
	C768.1,464.1,775.5,455.5,781.1,444.6z"/>
</svg>
